Coordinates
version=1
nRows=8
nColumns=34
inDegrees=yes

Units are S.I. units (second, meters, Newtons, ...)
If the header above contains a line with 'inDegrees', this indicates whether rotational values are in degrees (yes) or radians (no).

endheader
time	pelvis_tilt	pelvis_list	pelvis_rotation	pelvis_tx	pelvis_ty	pelvis_tz	hip_flexion_r	hip_adduction_r	hip_rotation_r	knee_angle_r	ankle_angle_r	subtalar_angle_r	mtp_angle_r	hip_flexion_l	hip_adduction_l	hip_rotation_l	knee_angle_l	ankle_angle_l	subtalar_angle_l	mtp_angle_l	lumbar_extension	lumbar_bending	lumbar_rotation	arm_flex_r	arm_add_r	arm_rot_r	elbow_flex_r	pro_sup_r	arm_flex_l	arm_add_l	arm_rot_l	elbow_flex_l	pro_sup_l
      2.30000000	     -2.96021407	     -2.29070042	    175.12385908	      1.94327063	      0.99111648	     -0.55363990	     17.92716537	      7.70464251	      5.42142270	     43.11504158	     11.86705988	    -22.34499729	      0.00000000	     34.92485799	     -2.23016443	      0.86004530	    118.74908527	      1.42980788	    -14.37760268	      0.00000000	    -22.93871138	      2.14232252	     -1.52103027	      9.74821200	    -17.29245900	      9.71581303	     97.33996374	    101.91437515	    -27.77352828	    -21.36904123	      1.47441023	     92.19846445	     99.38911980
      2.30833330	     -2.53710870	     -2.66574918	    175.20925046	      1.94964732	      0.99291169	     -0.55443276	     16.52142355	      6.95648926	      4.89906499	     42.52516216	     13.10239263	    -21.31337704	      0.00000000	     38.07662409	     -1.92822604	      0.41049234	    116.84562592	      0.38574384	    -15.50196977	      0.00000000	    -23.20771249	      1.66555470	     -0.13249063	     13.76582407	    -16.47749637	     11.12054268	     95.55533512	    101.48420194	    -28.81129632	    -21.34019731	     -1.20915278	     93.19233375	     98.74974590
      2.31666670	     -2.17424567	     -3.32112756	    175.57971898	      1.95453322	      1.00030596	     -0.55533819	     14.74281909	      5.82584972	      4.32450628	     41.37336437	     12.79415302	    -21.00181901	      0.00000000	     40.47889548	     -1.23443435	     -0.44788735	    113.36662221	     -2.03317051	    -17.45349855	      0.00000000	    -23.21718472	      0.94135570	      1.72662210	     15.98195442	    -15.98028069	     11.04881752	     95.28296540	    101.39147300	    -28.81361572	    -21.98367549	     -2.12344234	     93.87935567	     98.52306612
      2.32500000	     -1.78767713	     -4.01215129	    176.23985877	      1.95823529	      1.00615542	     -0.55606879	     12.91498683	      4.68807179	      3.72846238	     40.35600057	     13.22009002	    -19.84962693	      0.00000000	     42.85416948	     -0.24733510	     -1.00747315	    110.17202854	     -3.97211998	    -21.06140897	      0.00000000	    -23.03923684	      0.31037366	      2.86456663	     17.52538556	    -15.38648298	     11.06118498	     95.58635367	    101.26863138	    -29.30391667	    -22.57753667	     -3.28824368	     94.68481452	     98.06941514
      2.33333330	     -1.38207456	     -4.69769298	    176.79031488	      1.96016276	      1.01280808	     -0.55652747	     10.88257861	      3.50753963	      3.07061410	     39.10622576	     12.90582563	    -18.57716226	      0.00000000	     44.88043678	      0.79806134	     -1.74802454	    106.39010229	     -5.44760569	    -23.96226765	      0.00000000	    -22.42516146	     -0.30958524	      3.76088706	     17.82013613	    -15.32463338	     11.43366831	     97.07279784	    101.20820224	    -30.08970928	    -22.75630666	     -4.49314228	     95.40433549	     97.62867600
      2.34166670	     -1.13468129	     -5.10016375	    176.88100506	      1.96079443	      1.02141438	     -0.55731206	      8.29037935	      2.67016882	      2.73338362	     37.26513840	     12.02126619	    -16.95804320	      0.00000000	     46.20890150	      1.36517920	     -2.59974089	    101.78721599	     -6.23366641	    -26.55958470	      0.00000000	    -21.76790863	     -0.75553238	      4.86836742	     16.94885987	    -15.39876292	     11.90190620	     98.59250104	    101.16962542	    -30.94827144	    -22.58852913	     -5.65586902	     96.01470832	     97.13129110
      2.35000000	     -0.90332816	     -5.61257268	    176.63938503	      1.96058019	      1.03144385	     -0.55815023	      5.39521036	      1.69110448	      2.69175336	     34.85586971	     10.87855474	    -15.02272410	      0.00000000	     47.23764903	      1.87385080	     -3.64799951	     96.30733074	     -6.74054453	    -26.91972002	      0.00000000	    -21.00645195	     -1.28649022	      5.98428529	     15.23025616	    -15.76777727	     12.72760712	    101.42607526	    101.20456861	    -32.13517524	    -22.39551233	     -6.67327266	     96.71331439	     96.69167730
      2.35833330	     -0.76159000	     -5.88395223	    176.08020056	      1.95976899	      1.03830384	     -0.55882144	      2.29240421	      0.91637387	      2.80734766	     32.13922457	      9.36049015	    -12.68566683	      0.00000000	     47.79860979	      2.08424483	     -4.52595268	     90.10629627	     -6.88078093	    -26.42133853	      0.00000000	    -20.24002880	     -1.64454471	      7.41074842	     12.90913660	    -16.42750186	     13.49783181	    105.20261912	    101.30252036	    -33.36368779	    -22.09669072	     -7.64114227	     97.46039524	     96.20346239
